<?xml version="1.0" standalone="no"?>
<!DOCTYPE svg PUBLIC "-//W3C//DTD SVG 20010904//EN"
 "http://www.w3.org/TR/2001/REC-SVG-20010904/DTD/svg10.dtd">
<svg version="1.0" xmlns="http://www.w3.org/2000/svg"
 width="1024.000000pt" height="1024.000000pt" viewBox="0 0 1024.000000 1024.000000"
 preserveAspectRatio="xMidYMid meet">

<g transform="translate(0.000000,1024.000000) scale(0.100000,-0.100000)"
fill="#000000" stroke="none">
<path d="M2340 7986 c-144 -32 -252 -133 -289 -271 -11 -44 -17 -3907 -6
-3925 4 -6 11 -7 17 -4 7 4 8 2 4 -4 -8 -14 17 -55 27 -45 4 3 7 1 7 -6 0 -7
20 -21 44 -32 43 -19 93 -19 2982 -19 2836 0 2939 0 2973 18 50 26 104 98 96
129 -3 15 -1 23 7 23 8 0 9 3 3 8 -7 5 -10 660 -10 1932 l0 1925 -32 65 c-57
115 -157 189 -283 209 -101 17 -5467 13 -5540 -3z m5430 -2166 l0 -1740 -2650
2 -2650 3 -3 1738 -2 1737 2653 0 2652 0 0 -1740z"/>
<path d="M3550 5831 l0 -991 438 0 c272 0 454 4 482 11 25 6 52 12 62 14 35 7
141 54 194 86 72 43 164 142 198 211 30 61 56 171 56 239 1 216 -124 387 -329
454 l-55 18 64 31 c155 76 240 212 240 388 0 250 -142 431 -395 505 -52 15
-120 17 -507 21 l-448 3 0 -990z m804 692 c49 -13 71 -27 111 -67 57 -58 75
-103 75 -192 0 -113 -73 -213 -181 -247 -41 -14 -93 -17 -255 -17 l-204 0 0
270 0 270 197 0 c154 0 210 -4 257 -17z m14 -817 c181 -49 279 -204 233 -372
-23 -85 -88 -149 -186 -186 -54 -20 -83 -23 -287 -26 l-228 -4 0 301 0 301
208 0 c145 0 223 -4 260 -14z"/>
<path d="M5789 6793 c-10 -26 -234 -643 -424 -1168 -48 -132 -125 -346 -172
-475 -47 -129 -91 -252 -99 -272 l-13 -38 178 0 178 0 48 138 c26 75 63 183
83 240 l36 102 396 -2 395 -3 28 -80 c16 -44 53 -150 82 -235 l54 -155 180 -3
c100 -1 181 0 181 3 0 2 -30 87 -66 187 -150 415 -239 662 -362 1003 -72 198
-164 455 -206 570 l-74 210 -206 3 -206 2 -11 -27z m316 -625 c55 -160 119
-346 142 -412 23 -67 42 -125 42 -131 1 -7 -102 -9 -293 -7 l-294 3 33 97
c149 436 258 742 265 742 3 0 50 -131 105 -292z"/>
<path d="M1933 3527 c-12 -7 -142 -131 -290 -277 l-268 -265 -3 -215 c-3 -221
2 -267 39 -340 23 -46 103 -122 159 -151 l45 -24 3487 -3 3487 -2 58 21 c65
25 151 99 181 157 38 75 43 119 40 342 l-3 215 -268 265 c-147 146 -280 270
-295 277 -40 18 -6337 18 -6369 0z m4196 -721 c38 -20 61 -58 61 -102 0 -28
-8 -44 -34 -70 l-34 -34 -998 0 c-973 0 -1000 1 -1031 20 -45 27 -62 84 -39
131 35 73 -42 68 1059 69 844 0 992 -2 1016 -14z"/>
</g>
</svg>
